{
  "accessors": [
    {
      "bufferView": 2,
      "componentType": 5126,
      "count": 394,
      "max": [
        601.3154907226563,
        201.67825317382813,
        408.8844909667969
      ],
      "min": [
        -250.444580078125,
        -110.75623321533203,
        -402.9603576660156
      ],
      "type": "VEC3"
    },
    {
      "bufferView": 2,
      "byteOffset": 4728,
      "componentType": 5126,
      "count": 394,
      "max": [
        0.9014487862586975,
        1.0,
        1.0
      ],
      "min": [
        -0.8684608936309814,
        -1.0,
        -1.0
      ],
      "type": "VEC3"
    },
    {
      "bufferView": 1,
      "componentType": 5126,
      "count": 394,
      "max": [
        1.0002576112747192,
        0.9913071990013123
      ],
      "min": [
        0.008018996566534042,
        0.0018307426944375038
      ],
      "type": "VEC2"
    },
    {
      "bufferView": 0,
      "componentType": 5125,
      "count": 1500,
      "type": "SCALAR"
    },
    {
      "bufferView": 2,
      "byteOffset": 9456,
      "componentType": 5126,
      "count": 51,
      "max": [
        38.758079528808594,
        105.47209930419922,
        138.58209228515625
      ],
      "min": [
        -1.1920928955078125e-05,
        -110.54583740234375,
        -137.1232452392578
      ],
      "type": "VEC3"
    },
    {
      "bufferView": 2,
      "byteOffset": 10068,
      "componentType": 5126,
      "count": 51,
      "max": [
        0.9730572700500488,
        0.9844408631324768,
        0.9798545241355896
      ],
      "min": [
        -1.0,
        -0.9813276529312134,
        -0.9798545241355896
      ],
      "type": "VEC3"
    },
    {
      "bufferView": 1,
      "byteOffset": 3152,
      "componentType": 5126,
      "count": 51,
      "max": [
        0.8434181213378906,
        0.7473194003105164
      ],
      "min": [
        0.5838098526000977,
        0.47642895579338074
      ],
      "type": "VEC2"
    },
    {
      "bufferView": 0,
      "byteOffset": 6000,
      "componentType": 5125,
      "count": 180,
      "type": "SCALAR"
    },
    {
      "bufferView": 3,
      "componentType": 5126,
      "count": 248,
      "max": [
        5.0
      ],
      "min": [
        0.03999999910593033
      ],
      "type": "SCALAR"
    },
    {
      "bufferView": 4,
      "componentType": 5126,
      "count": 248,
      "max": [
        0.0,
        -13.487714767456055,
        0.0
      ],
      "min": [
        0.0,
        -52.733821868896484,
        0.0
      ],
      "type": "VEC3"
    },
    {
      "bufferView": 3,
      "byteOffset": 992,
      "componentType": 5126,
      "count": 248,
      "max": [
        5.0
      ],
      "min": [
        0.03999999910593033
      ],
      "type": "SCALAR"
    },
    {
      "bufferView": 5,
      "componentType": 5126,
      "count": 248,
      "max": [
        -6.687347203770955e-11,
        1.1644288866463626e-09,
        0.003443571738898754,
        1.0
      ],
      "min": [
        -1.3213864724637148e-10,
        1.1588382475835601e-09,
        -0.052701186388731,
        0.9986103177070618
      ],
      "type": "VEC4"
    },
    {
      "bufferView": 3,
      "byteOffset": 1984,
      "componentType": 5126,
      "count": 248,
      "max": [
        5.0
      ],
      "min": [
        0.03999999910593033
      ],
      "type": "SCALAR"
    },
    {
      "bufferView": 4,
      "byteOffset": 2976,
      "componentType": 5126,
      "count": 248,
      "max": [
        -284.01397705078125,
        15.422969818115234,
        -0.7115346193313599
      ],
      "min": [
        -285.4148254394531,
        -51.2833251953125,
        -0.7115346193313599
      ],
      "type": "VEC3"
    },
    {
      "bufferView": 3,
      "byteOffset": 2976,
      "componentType": 5126,
      "count": 248,
      "max": [
        5.0
      ],
      "min": [
        0.03999999910593033
      ],
      "type": "SCALAR"
    },
    {
      "bufferView": 5,
      "byteOffset": 3968,
      "componentType": 5126,
      "count": 248,
      "max": [
        0.9999487400054932,
        0.037258319556713104,
        0.02445717714726925,
        0.9999001026153564
      ],
      "min": [
        -0.8568799495697021,
        -0.052400242537260056,
        -0.05026629567146301,
        -0.49566495418548584
      ],
      "type": "VEC4"
    }
  ],
  "animations": [
    {
      "channels": [
        {
          "sampler": 0,
          "target": {
            "node": 4,
            "path": "translation"
          }
        },
        {
          "sampler": 1,
          "target": {
            "node": 4,
            "path": "rotation"
          }
        },
        {
          "sampler": 2,
          "target": {
            "node": 6,
            "path": "translation"
          }
        },
        {
          "sampler": 3,
          "target": {
            "node": 6,
            "path": "rotation"
          }
        }
      ],
      "name": "Scene",
      "samplers": [
        {
          "input": 8,
          "interpolation": "LINEAR",
          "output": 9
        },
        {
          "input": 10,
          "interpolation": "LINEAR",
          "output": 11
        },
        {
          "input": 12,
          "interpolation": "LINEAR",
          "output": 13
        },
        {
          "input": 14,
          "interpolation": "LINEAR",
          "output": 15
        }
      ]
    }
  ],
  "asset": {
    "extras": {
      "author": "yanix (https://sketchfab.com/yanix)",
      "license": "CC-BY-4.0 (http://creativecommons.org/licenses/by/4.0/)",
      "source": "https://sketchfab.com/3d-models/airplane-82ca4fd8cf444e5dbfb6b92628c51673",
      "title": "Airplane"
    },
    "generator": "Sketchfab-12.65.0",
    "version": "2.0"
  },
  "bufferViews": [
    {
      "buffer": 0,
      "byteLength": 6720,
      "name": "floatBufferViews",
      "target": 34963
    },
    {
      "buffer": 0,
      "byteLength": 3560,
      "byteOffset": 6720,
      "byteStride": 8,
      "name": "floatBufferViews",
      "target": 34962
    },
    {
      "buffer": 0,
      "byteLength": 10680,
      "byteOffset": 10280,
      "byteStride": 12,
      "name": "floatBufferViews",
      "target": 34962
    },
    {
      "buffer": 0,
      "byteLength": 3968,
      "byteOffset": 20960,
      "name": "floatBufferViews"
    },
    {
      "buffer": 0,
      "byteLength": 5952,
      "byteOffset": 24928,
      "byteStride": 12,
      "name": "floatBufferViews"
    },
    {
      "buffer": 0,
      "byteLength": 7936,
      "byteOffset": 30880,
      "byteStride": 16,
      "name": "floatBufferViews"
    }
  ],
  "buffers": [
    {
      "byteLength": 38816,
      "uri": "scene.bin"
    }
  ],
  "images": [
    {
      "uri": "textures/airplane_mat_baseColor.png"
    }
  ],
  "materials": [
    {
      "doubleSided": true,
      "emissiveFactor": [
        1.0,
        1.0,
        1.0
      ],
      "emissiveTexture": {
        "index": 0
      },
      "name": "airplane_mat",
      "pbrMetallicRoughness": {
        "baseColorFactor": [
          0.3908411311554153,
          0.3908411311554153,
          0.3908411311554153,
          1.0
        ],
        "baseColorTexture": {
          "index": 0
        },
        "metallicFactor": 0.0,
        "roughnessFactor": 0.8211145618000169
      }
    }
  ],
  "meshes": [
    {
      "name": "airplane_object_airplane_mat_0",
      "primitives": [
        {
          "attributes": {
            "NORMAL": 1,
            "POSITION": 0,
            "TEXCOORD_0": 2
          },
          "indices": 3,
          "material": 0,
          "mode": 4
        }
      ]
    },
    {
      "name": "Cylinder.002_airplane_mat_0",
      "primitives": [
        {
          "attributes": {
            "NORMAL": 5,
            "POSITION": 4,
            "TEXCOORD_0": 6
          },
          "indices": 7,
          "material": 0,
          "mode": 4
        }
      ]
    }
  ],
  "nodes": [
    {
      "children": [
        1
      ],
      "matrix": [
        1.0,
        0.0,
        0.0,
        0.0,
        0.0,
        2.220446049250313e-16,
        -1.0,
        0.0,
        0.0,
        1.0,
        2.220446049250313e-16,
        0.0,
        0.0,
        0.0,
        0.0,
        1.0
      ],
      "name": "Sketchfab_model"
    },
    {
      "children": [
        2
      ],
      "matrix": [
        1.0,
        0.0,
        0.0,
        0.0,
        0.0,
        0.0,
        1.0,
        0.0,
        0.0,
        -1.0,
        0.0,
        0.0,
        0.0,
        0.0,
        0.0,
        1.0
      ],
      "name": "airplane.fbx"
    },
    {
      "children": [
        3
      ],
      "name": "Object_2"
    },
    {
      "children": [
        4,
        6
      ],
      "name": "RootNode"
    },
    {
      "children": [
        5
      ],
      "name": "airplane_object",
      "rotation": [
        -8.380117433315348e-11,
        1.16333320754336e-09,
        -0.0381724052131176,
        0.9992711544036865
      ],
      "scale": [
        0.9999999403953552,
        0.9999999403953552,
        1.0
      ],
      "translation": [
        0.0,
        -38.17382049560547,
        0.0
      ]
    },
    {
      "mesh": 0,
      "name": "airplane_object_airplane_mat_0"
    },
    {
      "children": [
        7
      ],
      "name": "Cylinder.002",
      "rotation": [
        0.9663615822792053,
        -0.03691525012254715,
        -0.009715808555483818,
        0.25433868169784546
      ],
      "scale": [
        0.9999999403953552,
        1.0,
        0.9999998807907104
      ],
      "translation": [
        -284.689697265625,
        -14.985913276672363,
        -0.7115346193313599
      ]
    },
    {
      "mesh": 1,
      "name": "Cylinder.002_airplane_mat_0"
    }
  ],
  "samplers": [
    {
      "magFilter": 9729,
      "minFilter": 9987,
      "wrapS": 10497,
      "wrapT": 10497
    }
  ],
  "scene": 0,
  "scenes": [
    {
      "name": "Sketchfab_Scene",
      "nodes": [
        0
      ]
    }
  ],
  "textures": [
    {
      "sampler": 0,
      "source": 0
    }
  ]
}
