{
  "accessors": [
    {
      "name": "seat_Plano.002-Mesh_0_positions",
      "componentType": 5126,
      "count": 4347,
      "min": [
        -0.39657801389694214,
        0.40812599658966064,
        -0.3072960078716278
      ],
      "max": [
        0.2842009961605072,
        1.0825730562210083,
        0.3072960078716278
      ],
      "type": "VEC3",
      "bufferView": 0,
      "byteOffset": 0
    },
    {
      "name": "seat_Plano.002-Mesh_0_normals",
      "componentType": 5126,
      "count": 4347,
      "min": [
        -1,
        -1,
        -0.999996542930603
      ],
      "max": [
        1,
        1,
        0.999996542930603
      ],
      "type": "VEC3",
      "bufferView": 1,
      "byteOffset": 0
    },
    {
      "name": "seat_Plano.002-Mesh_0_texcoords",
      "componentType": 5126,
      "count": 4347,
      "min": [
        0,
        0
      ],
      "max": [
        1,
        1
      ],
      "type": "VEC2",
      "bufferView": 2,
      "byteOffset": 0
    },
    {
      "name": "seat_Plano.002-Mesh_0_indices",
      "componentType": 5123,
      "count": 21996,
      "min": [
        0
      ],
      "max": [
        4346
      ],
      "type": "SCALAR",
      "bufferView": 3,
      "byteOffset": 0
    },
    {
      "name": "seat_Plano.002-Mesh_1_positions",
      "componentType": 5126,
      "count": 843,
      "min": [
        -0.33554598689079285,
        -0.0010730000212788582,
        -0.3261609971523285
      ],
      "max": [
        0.2853820025920868,
        0.41495099663734436,
        0.32851800322532654
      ],
      "type": "VEC3",
      "bufferView": 0,
      "byteOffset": 52164
    },
    {
      "name": "seat_Plano.002-Mesh_1_normals",
      "componentType": 5126,
      "count": 843,
      "min": [
        -0.9996230006217957,
        -0.9913397431373596,
        -0.9998823404312134
      ],
      "max": [
        0.9998019337654114,
        0.2025172859430313,
        0.9998823404312134
      ],
      "type": "VEC3",
      "bufferView": 1,
      "byteOffset": 52164
    },
    {
      "name": "seat_Plano.002-Mesh_1_texcoords",
      "componentType": 5126,
      "count": 843,
      "min": [
        0,
        0
      ],
      "max": [
        1,
        1
      ],
      "type": "VEC2",
      "bufferView": 2,
      "byteOffset": 34776
    },
    {
      "name": "seat_Plano.002-Mesh_1_indices",
      "componentType": 5123,
      "count": 3432,
      "min": [
        0
      ],
      "max": [
        842
      ],
      "type": "SCALAR",
      "bufferView": 3,
      "byteOffset": 43992
    }
  ],
  "asset": {
    "generator": "obj2gltf",
    "version": "2.0"
  },
  "buffers": [
    {
      "name": "seat",
      "byteLength": 216936,
      "uri": "data:application/octet-stream;base64,"
    }
  ],
  "bufferViews": [
    {
      "name": "bufferView_0",
      "buffer": 0,
      "byteLength": 62280,
      "byteOffset": 0,
      "byteStride": 12,
      "target": 34962
    },
    {
      "name": "bufferView_1",
      "buffer": 0,
      "byteLength": 62280,
      "byteOffset": 62280,
      "byteStride": 12,
      "target": 34962
    },
    {
      "name": "bufferView_2",
      "buffer": 0,
      "byteLength": 41520,
      "byteOffset": 124560,
      "byteStride": 8,
      "target": 34962
    },
    {
      "name": "bufferView_3",
      "buffer": 0,
      "byteLength": 50856,
      "byteOffset": 166080,
      "target": 34963
    }
  ],
  "materials": [
    {
      "name": "M_Table_01",
      "pbrMetallicRoughness": {
        "baseColorFactor": [
          0.00845,
          0.00845,
          0.00845,
          1
        ],
        "metallicFactor": 0,
        "roughnessFactor": 0.775
      },
      "emissiveFactor": [
        0,
        0,
        0
      ],
      "alphaMode": "OPAQUE",
      "doubleSided": false
    },
    {
      "name": "Materiais",
      "pbrMetallicRoughness": {
        "baseColorFactor": [
          0.8,
          0.8,
          0.8,
          1
        ],
        "metallicFactor": 0,
        "roughnessFactor": 0.775
      },
      "emissiveFactor": [
        0,
        0,
        0
      ],
      "alphaMode": "OPAQUE",
      "doubleSided": false
    }
  ],
  "meshes": [
    {
      "name": "seat_Plano.002-Mesh",
      "primitives": [
        {
          "attributes": {
            "POSITION": 0,
            "NORMAL": 1,
            "TEXCOORD_0": 2
          },
          "indices": 3,
          "material": 0,
          "mode": 4
        },
        {
          "attributes": {
            "POSITION": 4,
            "NORMAL": 5,
            "TEXCOORD_0": 6
          },
          "indices": 7,
          "material": 1,
          "mode": 4
        }
      ]
    }
  ],
  "nodes": [
    {
      "name": "seat_Plano.002",
      "mesh": 0
    }
  ],
  "scene": 0,
  "scenes": [
    {
      "nodes": [
        0
      ]
    }
  ]
}
